# xmcd CD database file generated by OrangeCD 5.0
#
# Track frame offsets:
#	150
#	14260
#	26315
#	39301
#	53823
#	68282
#	81423
#	96086
#	118858
#	132655
#	146334
#	161367
#	175544
#	188224
#	202938
#	215797
#	228893
#	242457
#	253797
#	266636
#	279022
#	290636
#	302893
#	316020
#
# Disc length: 4374 seconds
#
# Revision: 2
# Processed by: cddbd v1.4PL0 Copyright (c) Steve Scherf et al.
# Submitted via: OrangeCD 5.0
#
DISCID=45111418
DTITLE=Brown, Charles - The Classic Earliest Recordings (1946, Los Angeles) (Di
DTITLE=sc Two)
DYEAR=2003
DGENRE=Blues
TTITLE0='Til The Right One Comes Along
TTITLE1=Rocks In My Bed
TTITLE2=Travelin' Blues
TTITLE3=I'll Get Along Somehow
TTITLE4=What Do You Know About Love
TTITLE5=Nutmeg
TTITLE6=It's The Talk Of The Town
TTITLE7=Warsaw Concerto Parts 1 and 2
TTITLE8=How Deep Is The Ocean
TTITLE9=You Left Me Forsaken
TTITLE10=So Long
TTITLE11=You Won't Let Me Go
TTITLE12=It Had To Be You
TTITLE13=You Showed Me The Way
TTITLE14=More Than You Know
TTITLE15=Sail On Blues
TTITLE16=Blue Because Of You
TTITLE17=Make Believe Land
TTITLE18=If You Should Ever Leave
TTITLE19=When Your Lover Has Gone
TTITLE20=Way Over There By The Cherry Tree
TTITLE21=Sunny Road
TTITLE22=Be Fair With Me
TTITLE23=Falling In Love With You
EXTD=
EXTT0=
EXTT1=
EXTT2=
EXTT3=
EXTT4=
EXTT5=
EXTT6=
EXTT7=
EXTT8=
EXTT9=
EXTT10=
EXTT11=
EXTT12=
EXTT13=
EXTT14=
EXTT15=
EXTT16=
EXTT17=
EXTT18=
EXTT19=
EXTT20=
EXTT21=
EXTT22=
EXTT23=
PLAYORDER=
